REM DIRINDEX 1\2,1\3,1\4,1\5,1\6
REM DIRNAME folder01,folder02,folder03,folder04,folder05,folder06
TITLE ""
FILE "Disc1Track12.mp3" MP3
  TRACK 01 AUDIO
    TITLE "3:cjc030_00260"
    INDEX 01 00:00:00
  TRACK 02 AUDIO
    TITLE "0:"
    INDEX 01 00:01:21
  TRACK 03 AUDIO
    TITLE "4:cjc030_00261"
    INDEX 01 00:01:26
  TRACK 04 AUDIO
    TITLE "0:"
    INDEX 01 00:02:57
  TRACK 05 AUDIO
    TITLE "5:cjc030_00262"
    INDEX 01 00:02:65
  TRACK 06 AUDIO
    TITLE "0:"
    INDEX 01 00:04:15
  TRACK 07 AUDIO
    TITLE "6:cjc030_00263"
    INDEX 01 00:04:25
  TRACK 08 AUDIO
    TITLE "0:"
    INDEX 01 00:10:27
  TRACK 09 AUDIO
    TITLE "3:cjc030_00264"
    INDEX 01 00:11:01
  TRACK 10 AUDIO
    TITLE "0:"
    INDEX 01 00:12:16
  TRACK 11 AUDIO
    TITLE "4:cjc030_00265"
    INDEX 01 00:12:26
  TRACK 12 AUDIO
    TITLE "0:"
    INDEX 01 00:14:23
  TRACK 13 AUDIO
    TITLE "5:cjc030_00266"
    INDEX 01 00:14:29
  TRACK 14 AUDIO
    TITLE "0:"
    INDEX 01 00:15:48
  TRACK 15 AUDIO
    TITLE "6:cjc030_00267"
    INDEX 01 00:15:60
  TRACK 16 AUDIO
    TITLE "0:"
    INDEX 01 00:21:57
  TRACK 17 AUDIO
    TITLE "3:cjc030_00268"
    INDEX 01 00:22:30
  TRACK 18 AUDIO
    TITLE "0:"
    INDEX 01 00:23:53
  TRACK 19 AUDIO
    TITLE "4:cjc030_00269"
    INDEX 01 00:23:59
  TRACK 20 AUDIO
    TITLE "0:"
    INDEX 01 00:25:68
  TRACK 21 AUDIO
    TITLE "5:cjc030_00270"
    INDEX 01 00:26:03
  TRACK 22 AUDIO
    TITLE "0:"
    INDEX 01 00:27:24
  TRACK 23 AUDIO
    TITLE "6:cjc030_00271"
    INDEX 01 00:27:38
  TRACK 24 AUDIO
    TITLE "0:"
    INDEX 01 00:32:17
  TRACK 25 AUDIO
    TITLE "3:cjc030_00272"
    INDEX 01 00:32:66
  TRACK 26 AUDIO
    TITLE "0:"
    INDEX 01 00:34:02
  TRACK 27 AUDIO
    TITLE "4:cjc030_00273"
    INDEX 01 00:34:08
  TRACK 28 AUDIO
    TITLE "0:"
    INDEX 01 00:36:74
  TRACK 29 AUDIO
    TITLE "5:cjc030_00274"
    INDEX 01 00:37:05
  TRACK 30 AUDIO
    TITLE "0:"
    INDEX 01 00:38:24
  TRACK 31 AUDIO
    TITLE "6:cjc030_00275"
    INDEX 01 00:38:31
  TRACK 32 AUDIO
    TITLE "0:"
    INDEX 01 00:42:47
  TRACK 33 AUDIO
    TITLE "3:cjc030_00276"
    INDEX 01 00:43:17
  TRACK 34 AUDIO
    TITLE "0:"
    INDEX 01 00:44:38
  TRACK 35 AUDIO
    TITLE "4:cjc030_00277"
    INDEX 01 00:44:48
  TRACK 36 AUDIO
    TITLE "0:"
    INDEX 01 00:47:27
  TRACK 37 AUDIO
    TITLE "5:cjc030_00278"
    INDEX 01 00:47:36
  TRACK 38 AUDIO
    TITLE "0:"
    INDEX 01 00:48:57
  TRACK 39 AUDIO
    TITLE "6:cjc030_00279"
    INDEX 01 00:48:69
  TRACK 40 AUDIO
    TITLE "0:"
    INDEX 01 00:52:59
  TRACK 41 AUDIO
    TITLE "3:cjc030_00280"
    INDEX 01 00:53:31
  TRACK 42 AUDIO
    TITLE "0:"
    INDEX 01 00:54:48
  TRACK 43 AUDIO
    TITLE "4:cjc030_00281"
    INDEX 01 00:54:56
  TRACK 44 AUDIO
    TITLE "0:"
    INDEX 01 00:56:41
  TRACK 45 AUDIO
    TITLE "5:cjc030_00282"
    INDEX 01 00:56:47
  TRACK 46 AUDIO
    TITLE "0:"
    INDEX 01 00:57:68
  TRACK 47 AUDIO
    TITLE "6:cjc030_00283"
    INDEX 01 00:58:05
  TRACK 48 AUDIO
    TITLE "0:"
    INDEX 01 01:00:74
  TRACK 49 AUDIO
    TITLE "3:cjc030_00284"
    INDEX 01 01:01:48
  TRACK 50 AUDIO
    TITLE "0:"
    INDEX 01 01:02:59
  TRACK 51 AUDIO
    TITLE "4:cjc030_00285"
    INDEX 01 01:02:65
  TRACK 52 AUDIO
    TITLE "0:"
    INDEX 01 01:05:26
  TRACK 53 AUDIO
    TITLE "5:cjc030_00286"
    INDEX 01 01:05:32
  TRACK 54 AUDIO
    TITLE "0:"
    INDEX 01 01:06:45
  TRACK 55 AUDIO
    TITLE "6:cjc030_00287"
    INDEX 01 01:06:57
  TRACK 56 AUDIO
    TITLE "0:"
    INDEX 01 01:11:47
  TRACK 57 AUDIO
    TITLE "3:cjc030_00288"
    INDEX 01 01:12:19
  TRACK 58 AUDIO
    TITLE "0:"
    INDEX 01 01:13:28
  TRACK 59 AUDIO
    TITLE "4:cjc030_00289"
    INDEX 01 01:13:36
  TRACK 60 AUDIO
    TITLE "0:"
    INDEX 01 01:14:39
  TRACK 61 AUDIO
    TITLE "5:cjc030_00290"
    INDEX 01 01:14:47
  TRACK 62 AUDIO
    TITLE "0:"
    INDEX 01 01:15:56
  TRACK 63 AUDIO
    TITLE "6:cjc030_00291"
    INDEX 01 01:15:68
  TRACK 64 AUDIO
    TITLE "0:"
    INDEX 01 01:20:44
  TRACK 65 AUDIO
    TITLE "3:cjc030_00292"
    INDEX 01 01:21:18
  TRACK 66 AUDIO
    TITLE "0:"
    INDEX 01 01:22:35
  TRACK 67 AUDIO
    TITLE "4:cjc030_00293"
    INDEX 01 01:22:46
  TRACK 68 AUDIO
    TITLE "0:"
    INDEX 01 01:23:28
  TRACK 69 AUDIO
    TITLE "5:cjc030_00294"
    INDEX 01 01:23:36
  TRACK 70 AUDIO
    TITLE "0:"
    INDEX 01 01:24:59
  TRACK 71 AUDIO
    TITLE "6:cjc030_00295"
    INDEX 01 01:24:69
  TRACK 72 AUDIO
    TITLE "0:"
    INDEX 01 01:26:74
  TRACK 73 AUDIO
    TITLE "3:cjc030_00296"
    INDEX 01 01:27:50
  TRACK 74 AUDIO
    TITLE "0:"
    INDEX 01 01:28:65
  TRACK 75 AUDIO
    TITLE "4:cjc030_00297"
    INDEX 01 01:28:72
  TRACK 76 AUDIO
    TITLE "0:"
    INDEX 01 01:30:05
  TRACK 77 AUDIO
    TITLE "5:cjc030_00298"
    INDEX 01 01:30:15
  TRACK 78 AUDIO
    TITLE "0:"
    INDEX 01 01:31:30
  TRACK 79 AUDIO
    TITLE "6:cjc030_00299"
    INDEX 01 01:31:41
  TRACK 80 AUDIO
    TITLE "0:"
    INDEX 01 01:33:27
  TRACK 81 AUDIO
    TITLE "3:cjc030_00300"
    INDEX 01 01:34:01
  TRACK 82 AUDIO
    TITLE "0:"
    INDEX 01 01:35:20
  TRACK 83 AUDIO
    TITLE "4:cjc030_00301"
    INDEX 01 01:35:27
  TRACK 84 AUDIO
    TITLE "0:"
    INDEX 01 01:36:37
  TRACK 85 AUDIO
    TITLE "5:cjc030_00302"
    INDEX 01 01:36:45
  TRACK 86 AUDIO
    TITLE "0:"
    INDEX 01 01:37:62
